<svg width="59" height="59" viewBox="0 0 59 59" fill="none" xmlns="http://www.w3.org/2000/svg">
<g id="About Button">
<circle id="circle" cx="29.5" cy="29.5" r="29.5" fill="#0047FF"/>
<path id="about" d="M10.375 26.3594C11.3073 26.3594 12.0052 26.5938 12.4688 27.0625C12.9323 27.5312 13.1641 28.2786 13.1641 29.3047V35H12.5547L12.4141 33.5156H12.3672C12.1849 33.8333 11.9635 34.1172 11.7031 34.3672C11.4427 34.612 11.1224 34.8047 10.7422 34.9453C10.3672 35.0859 9.90885 35.1562 9.36719 35.1562C8.82031 35.1562 8.35156 35.0651 7.96094 34.8828C7.57552 34.7005 7.27604 34.4349 7.0625 34.0859C6.85417 33.737 6.75 33.3125 6.75 32.8125C6.75 31.9688 7.09896 31.3281 7.79688 30.8906C8.49479 30.4479 9.4974 30.1979 10.8047 30.1406L12.3828 30.0625V29.4453C12.3828 28.5755 12.2109 27.9557 11.8672 27.5859C11.5234 27.2161 11.0156 27.0312 10.3438 27.0312C9.90625 27.0312 9.48438 27.0885 9.07812 27.2031C8.67708 27.3125 8.26823 27.4714 7.85156 27.6797L7.60156 27.0234C8.00781 26.8307 8.44271 26.6719 8.90625 26.5469C9.375 26.4219 9.86458 26.3594 10.375 26.3594ZM12.375 30.6797L10.8906 30.7422C9.8125 30.7943 8.99219 30.987 8.42969 31.3203C7.86719 31.6536 7.58594 32.1536 7.58594 32.8203C7.58594 33.3568 7.7526 33.7682 8.08594 34.0547C8.42448 34.3411 8.89323 34.4844 9.49219 34.4844C10.4245 34.4844 11.1354 34.2188 11.625 33.6875C12.1198 33.1562 12.3698 32.4323 12.375 31.5156V30.6797ZM16.6719 22.8438V26.2969C16.6719 26.5938 16.6667 26.9193 16.6562 27.2734C16.6458 27.6276 16.6354 27.9219 16.625 28.1562H16.6719C16.875 27.6302 17.2292 27.1953 17.7344 26.8516C18.2396 26.5078 18.8698 26.3359 19.625 26.3359C20.7292 26.3359 21.5807 26.7083 22.1797 27.4531C22.7839 28.1979 23.0859 29.2891 23.0859 30.7266C23.0859 31.6068 22.9505 32.3802 22.6797 33.0469C22.4089 33.7083 22.0052 34.2266 21.4688 34.6016C20.9375 34.9714 20.2708 35.1562 19.4688 35.1562C18.7448 35.1562 18.1536 35.0052 17.6953 34.7031C17.237 34.3958 16.9036 34.013 16.6953 33.5547H16.6328L16.4844 35H15.8828V22.8438H16.6719ZM19.5391 27.0234C18.8672 27.0234 18.3203 27.1693 17.8984 27.4609C17.4766 27.7474 17.1667 28.1667 16.9688 28.7188C16.7708 29.2708 16.6719 29.9453 16.6719 30.7422V30.8672C16.6719 32.0391 16.8854 32.9323 17.3125 33.5469C17.7396 34.1615 18.4323 34.4688 19.3906 34.4688C20.3385 34.4688 21.0547 34.1458 21.5391 33.5C22.0286 32.849 22.2734 31.9245 22.2734 30.7266C22.2734 29.5026 22.0469 28.5807 21.5938 27.9609C21.1406 27.3359 20.4557 27.0234 19.5391 27.0234ZM32.4688 30.7422C32.4688 31.3984 32.388 31.9974 32.2266 32.5391C32.0651 33.0755 31.8255 33.5391 31.5078 33.9297C31.1901 34.3203 30.7943 34.6224 30.3203 34.8359C29.8516 35.0495 29.3047 35.1562 28.6797 35.1562C28.0859 35.1562 27.5573 35.0521 27.0938 34.8438C26.6302 34.6302 26.237 34.3281 25.9141 33.9375C25.5964 33.5469 25.3542 33.0833 25.1875 32.5469C25.0208 32.0052 24.9375 31.4036 24.9375 30.7422C24.9375 29.8307 25.0885 29.0469 25.3906 28.3906C25.6979 27.7292 26.1354 27.224 26.7031 26.875C27.276 26.5208 27.9609 26.3438 28.7578 26.3438C29.5807 26.3438 30.2656 26.5312 30.8125 26.9062C31.3646 27.276 31.7786 27.7917 32.0547 28.4531C32.3307 29.1146 32.4688 29.8776 32.4688 30.7422ZM25.75 30.7422C25.75 31.487 25.8568 32.138 26.0703 32.6953C26.2839 33.2526 26.6068 33.6875 27.0391 34C27.4766 34.3125 28.0286 34.4688 28.6953 34.4688C29.3776 34.4688 29.9375 34.3125 30.375 34C30.8125 33.6875 31.1354 33.25 31.3438 32.6875C31.5521 32.125 31.6562 31.4766 31.6562 30.7422C31.6562 30.0286 31.5573 29.3932 31.3594 28.8359C31.1615 28.2786 30.849 27.8411 30.4219 27.5234C29.9948 27.2005 29.4375 27.0391 28.75 27.0391C27.7656 27.0391 27.0182 27.3672 26.5078 28.0234C26.0026 28.6797 25.75 29.5859 25.75 30.7422ZM41.4141 26.5078V35H40.7734L40.6562 33.4688H40.6094C40.4635 33.7812 40.2578 34.0651 39.9922 34.3203C39.7266 34.5755 39.401 34.7786 39.0156 34.9297C38.6302 35.0807 38.1823 35.1562 37.6719 35.1562C37.0208 35.1562 36.474 35.0443 36.0312 34.8203C35.5938 34.5911 35.263 34.2474 35.0391 33.7891C34.8151 33.3307 34.7031 32.7578 34.7031 32.0703V26.5078H35.4922V31.9922C35.4922 32.8411 35.6823 33.4661 36.0625 33.8672C36.4479 34.2682 37.0104 34.4688 37.75 34.4688C38.375 34.4688 38.8984 34.349 39.3203 34.1094C39.7474 33.8698 40.0703 33.5078 40.2891 33.0234C40.513 32.5339 40.625 31.9245 40.625 31.1953V26.5078H41.4141ZM46.5625 34.4766C46.8073 34.4766 47.0339 34.4583 47.2422 34.4219C47.4557 34.3854 47.6432 34.3385 47.8047 34.2812V34.9375C47.638 34.9948 47.4427 35.0443 47.2188 35.0859C46.9948 35.1328 46.7474 35.1562 46.4766 35.1562C45.9974 35.1562 45.599 35.0677 45.2812 34.8906C44.9635 34.7083 44.724 34.4349 44.5625 34.0703C44.401 33.7005 44.3203 33.2318 44.3203 32.6641V27.1641H43.0547V26.6953L44.3125 26.4531L44.5859 24.4531H45.1094V26.5078H47.7578V27.1641H45.1094V32.6172C45.1094 33.2266 45.2214 33.6901 45.4453 34.0078C45.6745 34.3203 46.0469 34.4766 46.5625 34.4766Z" fill="white"/>
<path id="icon" fill-rule="evenodd" clip-rule="evenodd" d="M14.287 54.7799C15.0805 54.1213 15.9507 53.543 16.6695 53.0655C17.4878 52.5218 18.1098 52.1085 18.1985 51.8555C18.402 51.2755 18.402 48.7897 18.402 48.7897C17.4255 48.914 16.9373 48.624 16.7339 48.0439C14.7811 49.204 12.4215 48.5825 11.7299 47.5468C9.87469 48.3091 8.10903 47.4501 7.4581 46.9253C8.53214 47.1242 9.77705 46.8977 10.2653 46.7596C7.9463 46.221 5.99349 43.8594 5.95281 42.2851C6.31896 43.4037 9.81774 43.5694 10.3466 42.4094C7.49878 43.3208 4.56957 40.4621 4 38.7635C5.30187 40.2135 8.55655 37.6448 8.47518 36.1948C3.10496 32.6732 8.39382 24.5527 10.2653 23.3927C10.0212 19.3325 11.974 14.3608 13.8454 11.9164C15.6355 8.06334 19.5004 6.44755 22.1041 6.32325C25.2578 2.56998 31.1793 4.38184 32.6771 4.84013C32.783 4.87254 32.8668 4.89819 32.926 4.91461C33.821 5.1632 38.703 8.39481 40.0456 9.59629C41.3881 10.7978 44.0732 13.9465 44.1953 16.6809C44.3173 19.4154 47.5313 23.1027 50.0944 23.1027C52.1448 23.1027 53.5525 22.7712 54 22.6055C52.5354 24.4616 50.0266 24.4285 48.9552 24.1799C52.9829 26.9972 54.0814 34.3718 49.3621 36.5677C49.9479 39.8158 52.4269 39.8269 53.5932 39.4264C48.9552 44.3566 43.3816 48.4997 37.6859 47.091C38.0198 50.982 42.5476 52.3241 44.5157 52.9074C44.7061 52.9639 44.8726 53.0132 45.0089 53.0571C45.3889 53.1792 45.8579 53.4193 46.3526 53.7156C41.5751 57.0466 35.7657 59 29.5 59C23.9345 59 18.729 57.4588 14.287 54.7799Z" fill="white"/>
</g>
</svg>
