<svg width="50" height="79" viewBox="0 0 50 79" fill="none" xmlns="http://www.w3.org/2000/svg">
<path id="Arrow" d="M8.40449 51.5417C6.38207 49.6615 3.21834 49.7767 1.33811 51.7991C-0.542128 53.8216 -0.426863 56.9853 1.59556 58.8655L20.2338 76.1934C22.9204 78.6912 27.0796 78.6912 29.7663 76.1934L48.4045 58.8655C50.4269 56.9853 50.5422 53.8216 48.6619 51.7991C46.7817 49.7767 43.618 49.6615 41.5956 51.5417L30 62.322L30 5C30 2.23858 27.7614 1.20706e-07 25 0C22.2386 -1.20706e-07 20 2.23858 20 5L20 62.322L8.40449 51.5417Z" fill="#0047FF"/>
</svg>
