<svg width="500" height="292" viewBox="0 0 500 292" fill="none" xmlns="http://www.w3.org/2000/svg">
<path d="M22 80H47V140H69.4V0H47V60H22V0H0V140H22V80Z" fill="black"/>
<path d="M107.352 20H145.352V0H85.3516V140H145.352V120H107.352V79H137.552V59H107.352V20Z" fill="black"/>
<path d="M189.384 0H158.784V140H177.984V41L194.384 140H215.184L230.384 39.6V140H251.184V0H220.584L205.584 99.4L189.384 0Z" fill="black"/>
<path d="M315.987 0H283.788L261.388 140H281.587L285.388 114.6H312.388L316.188 140H338.388L315.987 0ZM298.788 24.8L309.388 95.6H288.188L298.788 24.8Z" fill="black"/>
<path d="M395.633 140H418.233V0H398.633V83.8L376.033 0H348.433V140H368.233V38.6L395.633 140Z" fill="black"/>
<path d="M433.984 140H455.984V0H433.984V140Z" fill="black"/>
<path d="M50.2 290H72.8L42.2 212.4L72.8 150H51.2L22 211V150H0V290H22V247L28.8 234.2L50.2 290Z" fill="black"/>
<path d="M131.613 150H99.4125L77.0125 290H97.2125L101.013 264.6H128.012L131.812 290H154.013L131.613 150ZM114.413 174.8L125.012 245.6H103.812L114.413 174.8Z" fill="black"/>
<path d="M196.658 150H164.258V290H186.258V237.4H196.658C218.658 237.4 229.458 225.2 229.458 202.8V184.6C229.458 162.2 218.658 150 196.658 150ZM196.658 170C203.658 170 207.458 173.2 207.458 183.2V204.2C207.458 214.2 203.658 217.4 196.658 217.4H186.258V170H196.658Z" fill="black"/>
<path d="M259.848 182.2C259.848 172.2 264.248 168.4 271.248 168.4C278.248 168.4 282.648 172.2 282.648 182.2V257.8C282.648 267.8 278.248 271.6 271.248 271.6C264.248 271.6 259.848 267.8 259.848 257.8V182.2ZM237.848 256.4C237.848 278.8 249.648 291.6 271.248 291.6C292.848 291.6 304.648 278.8 304.648 256.4V183.6C304.648 161.2 292.848 148.4 271.248 148.4C249.648 148.4 237.848 161.2 237.848 183.6V256.4Z" fill="black"/>
<path d="M339.145 182.2C339.145 172.2 343.545 168.4 350.545 168.4C357.545 168.4 361.945 172.2 361.945 182.2V257.8C361.945 267.8 357.545 271.6 350.545 271.6C343.545 271.6 339.145 267.8 339.145 257.8V182.2ZM317.145 256.4C317.145 278.8 328.945 291.6 350.545 291.6C372.145 291.6 383.945 278.8 383.945 256.4V183.6C383.945 161.2 372.145 148.4 350.545 148.4C328.945 148.4 317.145 161.2 317.145 183.6V256.4Z" fill="black"/>
<path d="M466.642 290C464.442 284.8 464.242 279.8 464.242 273V251.4C464.242 236.8 460.642 226.2 449.642 221.6C459.442 217 464.042 207.6 464.042 193.2V182.2C464.042 160.6 454.242 150 431.442 150H398.242V290H420.242V233H427.842C437.842 233 442.242 237.8 442.242 250.8V272.8C442.242 284.2 443.042 286.4 444.242 290H466.642ZM430.842 170C438.642 170 442.042 174.4 442.042 184.4V198.2C442.042 209.4 437.042 213 428.842 213H420.242V170H430.842Z" fill="black"/>
<path d="M478.711 268.8V290H499.911V268.8H478.711Z" fill="#0029FF"/>
</svg>
