<svg id="projects-button" width="65" height="121" viewBox="0 0 65 121" fill="none" xmlns="http://www.w3.org/2000/svg">
<path id="projects" d="M24.3477 10.1074C24.3477 12.1094 23.6592 13.7061 22.2822 14.8975C20.9053 16.0889 18.835 16.6846 16.0713 16.6846C14.2451 16.6846 12.7119 16.4111 11.4717 15.8643C10.2314 15.3174 9.29394 14.5459 8.65918 13.5498C8.02441 12.5635 7.70703 11.3965 7.70703 10.0488C7.70703 9.19922 7.81934 8.45215 8.04394 7.80762C8.26855 7.16308 8.57129 6.61133 8.95215 6.15234C9.33301 5.69336 9.74805 5.3125 10.1973 5.00976L10.1973 4.83398C9.81641 4.86328 9.35742 4.89746 8.82031 4.93652C8.2832 4.98535 7.81445 5.00976 7.41406 5.00976L0.822265 5.00976L0.822266 2.56347L24.0547 2.56348L24.0547 4.57031L21.6816 4.89258L21.6816 5.00976C22.1699 5.32226 22.6143 5.70312 23.0146 6.15234C23.4248 6.60156 23.7471 7.14844 23.9814 7.79297C24.2256 8.44726 24.3477 9.21875 24.3477 10.1074ZM22.2969 9.68262C22.2969 8.56934 22.082 7.6709 21.6523 6.9873C21.2227 6.31348 20.5781 5.82031 19.7187 5.50781C18.8691 5.19531 17.7998 5.0293 16.5107 5.00976L16.042 5.00976C14.6846 5.00976 13.5371 5.15625 12.5996 5.44922C11.6621 5.75195 10.9492 6.24512 10.4609 6.92871C9.97266 7.62207 9.72852 8.5498 9.72852 9.71191C9.72852 10.708 9.99707 11.5381 10.5342 12.2021C11.0713 12.8662 11.8184 13.3594 12.7754 13.6816C13.7422 14.0137 14.8506 14.1797 16.1006 14.1797C17.9951 14.1797 19.499 13.8086 20.6123 13.0664C21.7354 12.334 22.2969 11.2061 22.2969 9.68262ZM24.3477 28.2275C24.3477 28.5498 24.3281 28.8867 24.2891 29.2383C24.2598 29.5898 24.2158 29.9023 24.1572 30.1758L21.9014 29.8682C21.9697 29.6045 22.0234 29.3115 22.0625 28.9893C22.1016 28.667 22.1211 28.3643 22.1211 28.0811C22.1211 27.4365 21.9893 26.8262 21.7256 26.25C21.4717 25.6836 21.1006 25.1855 20.6123 24.7559C20.1338 24.3262 19.5527 23.9893 18.8691 23.7451C18.1953 23.501 17.4434 23.3789 16.6133 23.3789L8 23.3789L8 20.9326L24.0547 20.9326L24.0547 22.9541L21.0957 23.2178L21.0957 23.3203C21.6914 23.6523 22.2334 24.0527 22.7217 24.5215C23.2197 24.9902 23.6152 25.5322 23.9082 26.1475C24.2012 26.7725 24.3477 27.4658 24.3477 28.2275ZM16.0566 47.0508C14.7383 47.0508 13.5615 46.8799 12.5264 46.5381C11.4912 46.1963 10.6172 45.7031 9.90429 45.0586C9.1914 44.4141 8.64453 43.6328 8.26367 42.7148C7.89258 41.8066 7.70703 40.7764 7.70703 39.624C7.70703 38.5498 7.89258 37.5635 8.26367 36.665C8.64453 35.7764 9.1914 35.0049 9.9043 34.3506C10.6172 33.7061 11.4912 33.2031 12.5264 32.8418C13.5615 32.4902 14.7383 32.3145 16.0566 32.3145C17.8145 32.3145 19.3086 32.6123 20.5391 33.208C21.7793 33.8037 22.7217 34.6533 23.3662 35.7568C24.0205 36.8701 24.3477 38.1934 24.3477 39.7266C24.3477 41.1914 24.0205 42.4707 23.3662 43.5645C22.7119 44.668 21.7646 45.5225 20.5244 46.1279C19.2939 46.7432 17.8047 47.0508 16.0566 47.0508ZM16.0566 34.834C14.7676 34.834 13.6494 35.0049 12.7021 35.3467C11.7549 35.6885 11.0225 36.2158 10.5049 36.9287C9.9873 37.6416 9.72851 38.5596 9.72851 39.6826C9.72851 40.7959 9.9873 41.709 10.5049 42.4219C11.0225 43.1445 11.7549 43.6768 12.7021 44.0186C13.6494 44.3604 14.7676 44.5312 16.0566 44.5312C17.3359 44.5312 18.4395 44.3604 19.3672 44.0186C20.3047 43.6768 21.0273 43.1494 21.5352 42.4365C22.043 41.7236 22.2969 40.8008 22.2969 39.668C22.2969 37.998 21.7451 36.7725 20.6416 35.9912C19.5381 35.2197 18.0098 34.834 16.0566 34.834ZM0.792967 49.3213C0.792967 48.8232 0.832029 48.3887 0.910154 48.0176C0.978514 47.6465 1.06152 47.3242 1.15918 47.0508L3.13672 47.0508C3.03906 47.3535 2.96582 47.6611 2.91699 47.9736C2.8584 48.2861 2.8291 48.6377 2.8291 49.0283C2.8291 49.6924 3.01465 50.2295 3.38574 50.6396C3.75683 51.0498 4.43066 51.2549 5.40722 51.2549L24.0547 51.2549L24.0547 53.6865L5.46582 53.6865C4.48926 53.6865 3.65429 53.5303 2.96094 53.2178C2.25781 52.9053 1.7207 52.4268 1.34961 51.7822C0.978513 51.1377 0.792967 50.3174 0.792967 49.3213ZM28.4639 51.0352C29.0107 51.0352 29.4111 51.1719 29.665 51.4453C29.9287 51.7285 30.0605 52.0801 30.0605 52.5C30.0605 52.9004 29.9287 53.2422 29.665 53.5254C29.4111 53.8184 29.0107 53.9648 28.4639 53.9648C27.9268 53.9648 27.5264 53.8184 27.2627 53.5254C26.999 53.2422 26.8672 52.9004 26.8672 52.5C26.8672 52.0801 26.999 51.7285 27.2627 51.4453C27.5264 51.1719 27.9268 51.0352 28.4639 51.0352ZM24.3477 65.0244C24.3477 66.3916 24.0449 67.5635 23.4395 68.54C22.834 69.5166 21.9844 70.2637 20.8906 70.7812C19.8066 71.2988 18.5371 71.5576 17.082 71.5576L15.5732 71.5576L15.5732 60.4687C13.6885 60.498 12.2529 60.9668 11.2666 61.875C10.2803 62.7832 9.78711 64.0625 9.78711 65.7129C9.78711 66.7285 9.87988 67.627 10.0654 68.4082C10.251 69.1895 10.5244 70 10.8857 70.8398L8.74707 70.8398C8.38574 70.0293 8.12207 69.2236 7.95605 68.4229C7.79004 67.6318 7.70703 66.6943 7.70703 65.6104C7.70703 64.0674 8.01953 62.7197 8.64453 61.5674C9.27929 60.4248 10.207 59.5361 11.4277 58.9014C12.6484 58.2666 14.1426 57.9492 15.9102 57.9492C17.6387 57.9492 19.1328 58.2373 20.3926 58.8135C21.6621 59.3994 22.6387 60.2197 23.3223 61.2744C24.0059 62.3389 24.3477 63.5889 24.3477 65.0244ZM22.3555 64.9951C22.3555 63.6963 21.9307 62.6611 21.0811 61.8896C20.2314 61.1182 19.0449 60.6592 17.5215 60.5127L17.5215 69.0088C18.4785 68.999 19.3184 68.8477 20.041 68.5547C20.7734 68.2715 21.3398 67.8369 21.7402 67.251C22.1504 66.665 22.3555 65.9131 22.3555 64.9951ZM7.70703 82.1191C7.70703 80.6738 8.00488 79.3994 8.60058 78.2959C9.19629 77.1924 10.1045 76.333 11.3252 75.7178C12.5459 75.1025 14.084 74.7949 15.9394 74.7949C17.8828 74.7949 19.4697 75.1172 20.7002 75.7617C21.9404 76.416 22.8584 77.3145 23.4541 78.457C24.0498 79.5996 24.3477 80.8984 24.3477 82.3535C24.3477 83.1543 24.2646 83.9258 24.0986 84.668C23.9424 85.4199 23.7422 86.0352 23.498 86.5137L21.4619 85.7812C21.6572 85.293 21.833 84.7266 21.9893 84.082C22.1455 83.4473 22.2236 82.8516 22.2236 82.2949C22.2236 81.1816 21.9844 80.2539 21.5059 79.5117C21.0273 78.7793 20.3242 78.2275 19.3965 77.8564C18.4687 77.4951 17.3262 77.3145 15.9687 77.3145C14.6699 77.3145 13.5615 77.4902 12.6436 77.8418C11.7256 78.2031 11.0225 78.7354 10.5342 79.4385C10.0557 80.1514 9.8164 81.04 9.8164 82.1045C9.8164 82.9541 9.90429 83.7207 10.0801 84.4043C10.2656 85.0879 10.4805 85.708 10.7246 86.2646L8.55664 86.2646C8.2832 85.7275 8.07324 85.127 7.92675 84.4629C7.78027 83.8086 7.70703 83.0273 7.70703 82.1191ZM9.69921 95.2588C9.69921 95.6592 9.73339 96.0693 9.80175 96.4893C9.87011 96.9092 9.95312 97.251 10.0508 97.5146L8.16113 97.5146C8.03418 97.2314 7.92675 96.8359 7.83886 96.3281C7.75097 95.8301 7.70703 95.3418 7.70703 94.8633C7.70703 94.0137 7.85351 93.2422 8.14648 92.5488C8.44921 91.8555 8.95703 91.2988 9.66992 90.8789C10.3828 90.4687 11.3691 90.2637 12.6289 90.2637L22.1504 90.2637L22.1504 87.9785L23.3369 87.9785L24.2891 90.2783L27.7754 91.2451L27.7754 92.71L24.0547 92.71L24.0547 97.4121L22.1504 97.4121L22.1504 92.71L12.7021 92.71C11.6963 92.71 10.9443 92.9395 10.4463 93.3984C9.94824 93.8672 9.69921 94.4873 9.69921 95.2588ZM12.3945 111.152C11.3691 111.152 10.5049 110.894 9.80175 110.376C9.10839 109.868 8.58593 109.136 8.23437 108.179C7.88281 107.231 7.70703 106.099 7.70703 104.78C7.70703 103.657 7.79492 102.686 7.9707 101.865C8.14648 101.045 8.3955 100.327 8.71777 99.7119L10.959 99.7119C10.6367 100.366 10.3437 101.147 10.0801 102.056C9.8164 102.964 9.68457 103.892 9.68457 104.839C9.68457 106.226 9.90918 107.231 10.3584 107.856C10.8076 108.481 11.418 108.794 12.1894 108.794C12.6289 108.794 13.0146 108.667 13.3467 108.413C13.6885 108.169 14.0156 107.754 14.3281 107.168C14.6504 106.582 15.0019 105.771 15.3828 104.736C15.7734 103.711 16.1592 102.822 16.54 102.07C16.9307 101.328 17.4043 100.752 17.9609 100.342C18.5176 99.9414 19.2402 99.7412 20.1289 99.7412C21.4863 99.7412 22.5264 100.288 23.249 101.382C23.9814 102.485 24.3477 103.931 24.3477 105.718C24.3477 106.685 24.25 107.588 24.0547 108.428C23.8691 109.277 23.6152 110.068 23.293 110.801L21.3447 109.98C21.6279 109.316 21.8672 108.608 22.0625 107.856C22.2578 107.104 22.3555 106.338 22.3555 105.557C22.3555 104.434 22.1699 103.569 21.7988 102.964C21.4277 102.368 20.9199 102.07 20.2754 102.07C19.7773 102.07 19.3672 102.207 19.0449 102.48C18.7227 102.764 18.4199 103.213 18.1367 103.828C17.8535 104.443 17.5215 105.254 17.1406 106.26C16.7695 107.266 16.3838 108.135 15.9834 108.867C15.5928 109.6 15.1143 110.161 14.5478 110.552C13.9912 110.952 13.2734 111.152 12.3945 111.152Z" fill="white"/>
<path id="Triangle" d="M40 82.7929V37.2071C40 36.7617 40.5386 36.5386 40.8536 36.8536L63.6464 59.6464C63.8417 59.8417 63.8417 60.1583 63.6464 60.3536L40.8536 83.1464C40.5386 83.4614 40 83.2383 40 82.7929Z" stroke="white"/>
</svg>
